<svg width="24" height="24" viewBox="0 0 24 24" fill="none" xmlns="http://www.w3.org/2000/svg">
<path d="M16.5 22.5C16.3608 22.4999 16.2243 22.4611 16.1059 22.3878C15.9874 22.3146 15.8917 22.2098 15.8295 22.0853L14.5365 19.5H12V18H15C15.1394 17.9999 15.276 18.0387 15.3946 18.112C15.5131 18.1852 15.609 18.2901 15.6713 18.4148L16.5 20.0723L18.8295 15.4148C18.9675 15.138 19.2338 15 19.5 15C19.7662 15 20.0325 15.138 20.1705 15.4148L21.4635 18H24V19.5H21C20.8608 19.4999 20.7243 19.4611 20.6059 19.3878C20.4874 19.3146 20.3917 19.2098 20.3295 19.0853L19.5 17.4278L17.1713 22.0853C17.109 22.2099 17.0131 22.3148 16.8946 22.388C16.776 22.4613 16.6394 22.5001 16.5 22.5ZM17.5605 7.5L16.5 6.4395L12.9637 9.975C12.6632 9.82941 12.334 9.75255 12 9.75C10.7595 9.75 9.75 10.7595 9.75 12C9.75 13.2405 10.7595 14.25 12 14.25C13.2405 14.25 14.25 13.2405 14.25 12C14.25 11.6535 14.1653 11.3295 14.025 11.0363L17.5605 7.5ZM12 12.75C11.5868 12.75 11.25 12.4133 11.25 12C11.25 11.5868 11.5868 11.25 12 11.25C12.4132 11.25 12.75 11.5868 12.75 12C12.75 12.4133 12.4132 12.75 12 12.75ZM19.5 12C19.5007 10.7932 19.2072 9.60436 18.645 8.5365L17.5237 9.6585C17.8297 10.3785 18 11.1698 18 12H19.5ZM12 6C12.8302 6 13.6215 6.17025 14.3415 6.47625L15.4635 5.35425C14.3956 4.79228 13.2068 4.49906 12 4.5C7.8645 4.5 4.5 7.8645 4.5 12H6C6 8.69175 8.69175 6 12 6Z" fill="black"/>
<path d="M5.6325 18.3675C4.79566 17.532 4.13226 16.5394 3.68048 15.4466C3.22869 14.3538 2.99743 13.1825 3 12C3 7.0275 7.0275 3 12 3C16.965 3 20.9925 7.035 21 12H22.5C22.5 6.2025 17.7975 1.5 12 1.5C6.2025 1.5 1.5 6.2025 1.5 12C1.5 14.9025 2.6775 17.5275 4.575 19.425L5.6325 18.3675Z" fill="black"/>
</svg>
