<svg width="24" height="24" viewBox="0 0 24 24" fill="none" xmlns="http://www.w3.org/2000/svg">
<path d="M4.79987 4.80039C4.79987 4.16387 5.05273 3.55342 5.50281 3.10333C5.9529 2.65325 6.56335 2.40039 7.19987 2.40039H12.7031C13.1803 2.40081 13.6378 2.59073 13.9751 2.92839L18.6731 7.62519C19.0103 7.96263 19.1998 8.42013 19.1999 8.89719V19.2004C19.1999 19.8369 18.947 20.4474 18.4969 20.8974C18.0468 21.3475 17.4364 21.6004 16.7999 21.6004H13.0943C13.1647 21.4228 13.1999 21.2324 13.1999 21.0292C13.1999 20.806 13.1519 20.5924 13.0679 20.4004H16.7999C17.1181 20.4004 17.4234 20.274 17.6484 20.0489C17.8734 19.8239 17.9999 19.5187 17.9999 19.2004V9.60039H13.7999C13.3225 9.60039 12.8646 9.41075 12.5271 9.07318C12.1895 8.73562 11.9999 8.27778 11.9999 7.80039V3.60039H7.19987C6.88161 3.60039 6.57639 3.72682 6.35134 3.95186C6.1263 4.17691 5.99987 4.48213 5.99987 4.80039V9.71319C5.61376 9.56805 5.18881 9.5638 4.79987 9.70119V4.80039ZM13.7999 8.40039H17.7515L13.1999 3.84879V7.80039C13.1999 7.95952 13.2631 8.11213 13.3756 8.22465C13.4881 8.33718 13.6407 8.40039 13.7999 8.40039ZM5.85347 11.1388L6.27107 12.424C6.40058 12.8149 6.61974 13.1701 6.91103 13.4612C7.20232 13.7523 7.55767 13.9712 7.94867 14.1004L9.23507 14.518L9.26147 14.5252C9.3606 14.5601 9.44645 14.6249 9.50718 14.7106C9.56791 14.7964 9.60052 14.8989 9.60052 15.004C9.60052 15.1091 9.56791 15.2116 9.50718 15.2973C9.44645 15.3831 9.3606 15.4479 9.26147 15.4828L7.97507 15.9004C7.58385 16.0295 7.22826 16.2483 6.93675 16.5394C6.64524 16.8305 6.4259 17.1858 6.29627 17.5768L5.87867 18.8608C5.84378 18.9599 5.77898 19.0458 5.69322 19.1065C5.60745 19.1672 5.50496 19.1998 5.39987 19.1998C5.29478 19.1998 5.19229 19.1672 5.10653 19.1065C5.02076 19.0458 4.95596 18.9599 4.92107 18.8608L4.50347 17.5768C4.35374 17.1223 4.0833 16.7171 3.72107 16.4044C3.45881 16.1767 3.15419 16.003 2.82467 15.8932L1.53827 15.4756C1.43915 15.4407 1.3533 15.3759 1.29256 15.2901C1.23183 15.2044 1.19922 15.1019 1.19922 14.9968C1.19922 14.8917 1.23183 14.7892 1.29256 14.7034C1.3533 14.6177 1.43915 14.5529 1.53827 14.518L2.82467 14.1004C3.21101 13.9678 3.56132 13.7474 3.84805 13.4565C4.13478 13.1657 4.3501 12.8122 4.47707 12.424L4.89467 11.14C4.92931 11.0404 4.99408 10.9542 5.07999 10.8931C5.16589 10.832 5.26867 10.7992 5.37407 10.7992C5.47947 10.7992 5.58225 10.832 5.66816 10.8931C5.75406 10.9542 5.81883 11.0404 5.85347 11.14M11.7395 20.6572L10.8203 20.3596C10.5415 20.2665 10.2882 20.1098 10.0803 19.9019C9.87247 19.6941 9.7158 19.4408 9.62267 19.162L9.32267 18.244C9.29783 18.1731 9.25157 18.1117 9.1903 18.0683C9.12904 18.0248 9.05578 18.0015 8.98067 18.0015C8.90556 18.0015 8.83231 18.0248 8.77104 18.0683C8.70977 18.1117 8.66352 18.1731 8.63867 18.244L8.34107 19.162C8.24964 19.439 8.09553 19.6912 7.89073 19.8989C7.68592 20.1066 7.43595 20.2643 7.16027 20.3596L6.24227 20.6572C6.17193 20.6826 6.11113 20.729 6.06816 20.7902C6.02518 20.8514 6.00213 20.9244 6.00213 20.9992C6.00213 21.074 6.02518 21.1469 6.06816 21.2081C6.11113 21.2693 6.17193 21.3158 6.24227 21.3412L7.16027 21.64C7.44002 21.7333 7.69415 21.8905 7.90247 22.0993C8.11078 22.308 8.26754 22.5625 8.36027 22.8424L8.65787 23.7592C8.68272 23.8301 8.72897 23.8915 8.79024 23.9349C8.85151 23.9784 8.92476 24.0017 8.99987 24.0017C9.07498 24.0017 9.14824 23.9784 9.2095 23.9349C9.27077 23.8915 9.31703 23.8301 9.34187 23.7592L9.64067 22.8424C9.73376 22.5632 9.89055 22.3096 10.0986 22.1015C10.3067 21.8935 10.5603 21.7367 10.8395 21.6436L11.7575 21.346C11.8284 21.3211 11.8898 21.2749 11.9332 21.2136C11.9767 21.1524 12 21.0791 12 21.004C12 20.9289 11.9767 20.8556 11.9332 20.7944C11.8898 20.7331 11.8284 20.6868 11.7575 20.662L11.7395 20.6572Z" fill="black"/>
</svg>
