<svg width="24" height="24" viewBox="0 0 24 24" fill="none" xmlns="http://www.w3.org/2000/svg">
<path d="M11.9996 11.0296V17.8353C11.9977 18.4639 11.869 19.0857 11.6211 19.6634C11.3732 20.2411 11.0112 20.7628 10.5568 21.1972C10.1024 21.6316 9.56495 21.9698 8.9767 22.1915C8.38846 22.4132 7.76151 22.5138 7.13343 22.4874C6.50535 22.4609 5.88908 22.3079 5.32155 22.0376C4.75402 21.7672 4.24692 21.385 3.83065 20.914C3.41438 20.4429 3.09751 19.8927 2.89902 19.2962C2.70054 18.6997 2.62453 18.0693 2.67556 17.4427C1.70356 16.3987 1.08984 14.357 1.08984 12.653C1.08984 10.3319 2.22984 8.07416 3.86184 7.18445C3.77343 6.3737 3.93001 5.55506 4.31139 4.83417C4.69277 4.11328 5.28144 3.52323 6.00144 3.14017C6.72143 2.75711 7.53971 2.59861 8.35066 2.68514C9.16161 2.77167 9.92802 3.09924 10.551 3.62559" stroke="black" stroke-width="1.5" stroke-linecap="round" stroke-linejoin="round"/>
<path d="M6.01816 9.95874C5.41816 9.8216 4.06216 8.93017 3.85816 7.19531M3.92502 14.9936C3.31473 15.4753 2.82787 16.5656 2.67188 17.4399M11.9993 17.8342C12.0011 18.4628 12.1299 19.0846 12.3778 19.6623C12.6257 20.24 12.9877 20.7616 13.4421 21.196C13.8965 21.6304 14.4339 21.9686 15.0222 22.1903C15.6104 22.412 16.2374 22.5127 16.8654 22.4862C17.4935 22.4598 18.1098 22.3068 18.6773 22.0364C19.2448 21.7661 19.7519 21.3839 20.1682 20.9128C20.5845 20.4418 20.9014 19.8915 21.0998 19.295C21.2983 18.6986 21.3743 18.0682 21.3233 17.4416C22.2953 16.3976 22.9073 14.3559 22.9073 12.6519C22.9073 11.9079 22.7907 11.1707 22.5782 10.4816" stroke="black" stroke-width="1.5" stroke-linecap="round" stroke-linejoin="round"/>
<path d="M20.0747 14.994C20.685 15.4757 21.1719 16.566 21.3279 17.4402M12.1102 7.38425C11.5102 7.27796 11.5102 6.41567 12.1102 6.3111C13.1755 6.12512 14.1615 5.62647 14.9426 4.87858C15.7238 4.13069 16.2649 3.16735 16.497 2.1111L16.533 1.94482C16.6633 1.34996 17.5102 1.34482 17.6456 1.93967L17.6884 2.13339C17.928 3.18555 18.4735 4.14332 19.2563 4.88612C20.039 5.62891 21.024 6.12352 22.0873 6.30767C22.6924 6.41224 22.6924 7.28139 22.0873 7.38767C21.024 7.57183 20.039 8.06644 19.2563 8.80923C18.4735 9.55202 17.928 10.5098 17.6884 11.562L17.6456 11.754C17.5084 12.3471 16.6633 12.3437 16.533 11.7488L16.497 11.5842C16.2649 10.528 15.7238 9.56466 14.9426 8.81676C14.1615 8.06887 13.1755 7.57023 12.1102 7.38425Z" stroke="black" stroke-width="1.5" stroke-linecap="round" stroke-linejoin="round"/>
</svg>
